# xmcd
#
# Track frame offsets:
#   150
#   18295
#   32290
#   51417
#   71394
#   85621
#   99814
#   119315
#   132733
#   146966
#   166745
#   181369
#   205908
#
# Disc length: 2980 seconds
#
# Revision: 0
# Processed by: cddbd v1.5.2PL0 Copyright (c) Steve Scherf et al.
# Submitted via: uFREEDB ActiveX Control 1.5
#
DISCID=aa0ba20d
DTITLE=JOAO LUIZ CORREA - CAMPEIRISMO II
DYEAR=1900
DGENRE=Country
TTITLE0=UM DOMADOR PACHOLEANDO
TTITLE1=O PAU QUE DA CAVACO
TTITLE2=VIDA BAGUALA
TTITLE3=FANDANGOS DO MEU PAGO
TTITLE4=SACUDINDO A POEIRA
TTITLE5=MEIO TOURO E MEIO GALO
TTITLE6=EVOLUCAO
TTITLE7=PARANDO RODEIO
TTITLE8=GUACHO DE MANADA
TTITLE9=RIO GRANDE DO SUL
TTITLE10=MINHA VIDA
TTITLE11=VANERAO DO MOSQUEDO
TTITLE12=VERSEJANDO SAUDADE
EXTD=
EXTT0=
EXTT1=
EXTT2=
EXTT3=
EXTT4=
EXTT5=
EXTT6=
EXTT7=
EXTT8=
EXTT9=
EXTT10=
EXTT11=
EXTT12=
PLAYORDER=
